{"title":"Hell.And.Back.Again.2011.BDRip.XviD-SPRiNTER.","uid":6983740,"size":771692392,"categoryP":"video","categoryS":"movies","magnet":"?xt=urn:btih:e742ecfe0527aacd1392d95278940e96a909866a&amp;dn=Hell.And.Back.Again.2011.BDRip.XviD-SPRiNTER.&amp;tr=udp%3A%2F%2Ftracker.openbittorrent.com%3A80&amp;tr=udp%3A%2F%2Fopen.demonii.com%3A1337&amp;tr=udp%3A%2F%2Ftracker.coppersurfer.tk%3A6969&amp;tr=udp%3A%2F%2Fexodus.desync.com%3A6969","seeders":0,"leechers":0,"uploader":"moviesp2p","files":57,"time":1327496970,"description":"[imgw=http://i.imgur.com/zDevo.jpg]\nSPRiNTER proudly presents...\n\n\n\nHaba2011.BDRip.XviD-SPRiNTER\n\nDate : 24.1.2012\nURL : http://www.imdb.com/title/tt1748043/\nSubs : No\n\n\n\nRelease notes\n\n\n\nEnjoy\n\n\n\nNews\n\n\n\nWe are currently looking for:\n- Looking for talented xvid-encoders with time &amp; addiction :)\n- Suppliers who can provide pre-retail or retail dvds with decent upload\n- 50Mbit+ dump providers with 1TB+ free space.\n\n&lt;a class=&quot;__cf_email__&quot; href=&quot;/cdn-cgi/l/email-protection&quot; data-cfemail=&quot;5e2d2e2c37302a3b2c1e362b2d36703d3133&quot;&gt;[email&amp;#160;protected]&lt;/a&gt;&lt;script cf-hash='f9e31' type=&quot;text/javascript&quot;&gt;\n/* &lt;![CDATA[ */!function(){try{var t=&quot;currentScript&quot;in document?document.currentScript:function(){for(var t=document.getElementsByTagName(&quot;script&quot;),e=t.length;e--;)if(t[e].getAttribute(&quot;cf-hash&quot;))return t[e]}();if(t&amp;&amp;t.previousSibling){var e,r,n,i,c=t.previousSibling,a=c.getAttribute(&quot;data-cfemail&quot;);if(a){for(e=&quot;&quot;,r=parseInt(a.substr(0,2),16),n=2;a.length-n;n+=2)i=parseInt(a.substr(n,2),16)^r,e+=String.fromCharCode(i);e=document.createTextNode(e),c.parentNode.replaceChild(e,c)}}}catch(u){}}();/* ]]&gt; */&lt;/script&gt;\n\n\n\nGreetings\n\n\n\nNTX FiCO HNR CiNEFiLE AEN HUMANiSM TASTE 0MNiDVD\n\n\n\nDetails\n\n\n\nFormat : AVI\nFormat/Info : Audio Video Interleave\nFile size : 701 MiB\nDuration : 1h 28mn\nOverall bit rate mode : Variable\nOverall bit rate : 1 108 Kbps\nWriting application : VirtualDubMod 1.5.10.2 (build 2540/release)\nWriting library : VirtualDubMod build 2540/release\n\nVideo\nID : 0\nFormat : MPEG-4 Visual\nFormat profile : Advanced Simple@L5\nFormat settings, BVOP : 2\nFormat settings, QPel : No\nFormat settings, GMC : No warppoints\nFormat settings, Matrix : Default (H.263)\nCodec ID : XVID\nCodec ID/Hint : XviD\nDuration : 1h 28mn\nBit rate : 967 Kbps\nWidth : 592 pixels\nHeight : 336 pixels\nDisplay aspect ratio : 16:9\nFrame rate : 23.976 fps\nColor space : YUV\nChroma subsampling : 4:2:0\nBit depth : 8 bits\nScan type : Progressive\nCompression mode : Lossy\nBits/(Pixel*Frame) : 0.203\nStream size : 612 MiB (87)\nWriting library : XviD 61\n\nAudio\nID : 1\nFormat : MPEG Audio\nFormat version : Version 1\nFormat profile : Layer 3\nMode : Joint stereo\nMode extension : MS Stereo\nCodec ID : 55\nCodec ID/Hint : MP3\nDuration : 1h 28mn\nBit rate mode : Variable\nBit rate : 128 Kbps\nMinimum bit rate : 128 Kbps\nChannel(s) : 2 channels\nSampling rate : 48.0 KHz\nCompression mode : Lossy\nStream size : 80.8 MiB (12)\nAlignment : Aligned on interleaves\nInterleave, duration : 24 ms (0.58 video frame)\nInterleave, preload duration : 144 ms\nWriting library : LAME3.95\nEncoding settings : -m j -V 4 -q 3 -lowpass 18 --vbr-old -b 128","torrent":{"xt":"urn:btih:e742ecfe0527aacd1392d95278940e96a909866a","amp;dn":"Hell.And.Back.Again.2011.BDRip.XviD-SPRiNTER.","amp;tr":["udp%3A%2F%2Ftracker.openbittorrent.com%3A80","udp%3A%2F%2Fopen.demonii.com%3A1337","udp%3A%2F%2Ftracker.coppersurfer.tk%3A6969","udp%3A%2F%2Fexodus.desync.com%3A6969"],"infoHash":"e742ecfe0527aacd1392d95278940e96a909866a","infoHashBuffer":{"type":"Buffer","data":[231,66,236,254,5,39,170,205,19,146,217,82,120,148,14,150,169,9,134,106]},"announce":[],"urlList":[]}}